<mxfile host="app.diagrams.net" modified="2024-02-07T19:25:42.957Z" agent="Mozilla/5.0 (Windows NT 10.0; Win64; x64) AppleWebKit/537.36 (KHTML, like Gecko) Chrome/121.0.0.0 Safari/537.36" etag="mGJfzvqiTyxwQfkOmPvP" version="23.1.1" type="device">
  <diagram name="Page-1" id="u2kRzHeNJcA6HG4W8Vo_">
    <mxGraphModel dx="1290" dy="522" grid="1" gridSize="10" guides="1" tooltips="1" connect="1" arrows="1" fold="1" page="1" pageScale="1" pageWidth="1654" pageHeight="2336" math="0" shadow="0">
      <root>
        <mxCell id="0" />
        <mxCell id="1" parent="0" />
        <mxCell id="mhAeHRieBWMIhmBChWoU-5" style="edgeStyle=orthogonalEdgeStyle;rounded=0;orthogonalLoop=1;jettySize=auto;html=1;" edge="1" parent="1" source="mhAeHRieBWMIhmBChWoU-1" target="mhAeHRieBWMIhmBChWoU-4">
          <mxGeometry relative="1" as="geometry" />
        </mxCell>
        <mxCell id="mhAeHRieBWMIhmBChWoU-1" value="Local Machine" style="rounded=0;whiteSpace=wrap;html=1;" vertex="1" parent="1">
          <mxGeometry x="330" y="240" width="120" height="60" as="geometry" />
        </mxCell>
        <mxCell id="mhAeHRieBWMIhmBChWoU-2" value="Repository" style="rounded=0;whiteSpace=wrap;html=1;" vertex="1" parent="1">
          <mxGeometry x="820" y="240" width="120" height="60" as="geometry" />
        </mxCell>
        <mxCell id="mhAeHRieBWMIhmBChWoU-7" style="edgeStyle=orthogonalEdgeStyle;rounded=0;orthogonalLoop=1;jettySize=auto;html=1;" edge="1" parent="1" source="mhAeHRieBWMIhmBChWoU-4" target="mhAeHRieBWMIhmBChWoU-2">
          <mxGeometry relative="1" as="geometry" />
        </mxCell>
        <mxCell id="mhAeHRieBWMIhmBChWoU-4" value="Staging Area" style="ellipse;whiteSpace=wrap;html=1;" vertex="1" parent="1">
          <mxGeometry x="570" y="230" width="160" height="80" as="geometry" />
        </mxCell>
        <mxCell id="mhAeHRieBWMIhmBChWoU-8" value="Add command: add changes you made to the local files to staging area" style="text;strokeColor=none;align=center;fillColor=none;html=1;verticalAlign=middle;whiteSpace=wrap;rounded=0;" vertex="1" parent="1">
          <mxGeometry x="470" y="240" width="90" height="160" as="geometry" />
        </mxCell>
        <mxCell id="mhAeHRieBWMIhmBChWoU-9" value="Commit: commit these changes to repository" style="text;strokeColor=none;align=center;fillColor=none;html=1;verticalAlign=middle;whiteSpace=wrap;rounded=0;" vertex="1" parent="1">
          <mxGeometry x="730" y="250" width="90" height="120" as="geometry" />
        </mxCell>
      </root>
    </mxGraphModel>
  </diagram>
</mxfile>
